<svg width="1920" height="788" viewBox="0 0 1920 788" fill="none" xmlns="http://www.w3.org/2000/svg">
<g clip-path="url(#clip0_27_101)">
<rect width="1920" height="788" fill="#D9D9D9"/>
<path d="M-290.091 -97C-402.655 96.3867 -111.988 23.8835 -111.988 161.013C-111.988 290.267 -103.343 360.48 49.6054 395.167C209.197 431.36 301.373 553.746 236.713 640.353C176.679 720.767 684.972 681.973 505.368 902" stroke="#817ADD"/>
<path d="M263.879 -10C151.445 183.387 441.775 110.884 441.775 248.013C441.775 377.267 450.41 447.48 603.18 482.167C762.587 518.36 854.655 640.746 790.071 727.353C730.106 807.767 1237.81 768.973 1058.41 989" stroke="#0B073F"/>
<path d="M-264.091 -93C-376.655 100.387 -85.9878 27.8835 -85.9878 165.013C-85.9878 294.267 -77.3426 364.48 75.6054 399.167C235.197 435.36 327.373 557.746 262.713 644.353C202.679 724.767 710.972 685.973 531.368 906" stroke="#7B75D5"/>
<path d="M-237.121 -89C-349.555 104.387 -59.225 31.8835 -59.225 169.013C-59.225 298.267 -50.5899 368.48 102.18 403.167C261.587 439.36 353.655 561.746 289.071 648.353C229.106 728.767 736.808 689.973 557.413 910" stroke="#756FCE"/>
<path d="M-211.091 -85C-323.655 108.387 -32.9878 35.8835 -32.9878 173.013C-32.9878 302.267 -24.3426 372.48 128.605 407.167C288.197 443.36 380.373 565.746 315.713 652.353C255.679 732.767 763.972 693.973 584.368 914" stroke="#706AC6"/>
<path d="M-185.091 -80C-297.655 113.193 -6.9878 40.7625 -6.9878 177.755C-6.9878 306.879 1.65742 377.022 154.605 411.674C314.197 447.831 406.373 570.094 341.713 656.615C281.679 736.948 789.972 698.194 610.368 918" stroke="#6A64BF"/>
<path d="M-158.121 -76C-270.555 117.193 19.775 44.7625 19.775 181.755C19.775 310.879 28.4101 381.022 181.18 415.674C340.587 451.831 432.655 574.094 368.071 660.615C308.106 740.948 815.808 702.194 636.413 922" stroke="#645FB7"/>
<path d="M-132.091 -72C-244.655 121.387 46.0122 48.8835 46.0122 186.013C46.0122 315.267 54.6574 385.48 207.605 420.167C367.197 456.36 459.373 578.746 394.713 665.353C334.679 745.767 842.972 706.973 663.368 927" stroke="#5F59B0"/>
<path d="M-106.091 -68C-218.655 125.387 72.0122 52.8835 72.0122 190.013C72.0122 319.267 80.6574 389.48 233.605 424.167C393.197 460.36 485.373 582.746 420.713 669.353C360.679 749.767 868.972 710.973 689.368 931" stroke="#5954A8"/>
<path d="M-79.1207 -64C-191.555 129.387 98.775 56.8835 98.775 194.013C98.775 323.267 107.41 393.48 260.18 428.167C419.587 464.36 511.655 586.746 447.071 673.353C387.106 753.767 894.808 714.973 715.413 935" stroke="#544EA1"/>
<path d="M-53.0905 -60C-165.655 133.387 125.012 60.8835 125.012 198.013C125.012 327.267 133.657 397.48 286.605 432.167C446.197 468.36 538.373 590.746 473.713 677.353C413.679 757.767 921.972 718.973 742.368 939" stroke="#4E4999"/>
<path d="M-26.1207 -56C-138.555 137.387 151.775 64.8835 151.775 202.013C151.775 331.267 160.41 401.48 313.18 436.167C472.587 472.36 564.655 594.746 500.071 681.353C440.106 761.767 947.808 722.973 768.413 943" stroke="#484391"/>
<path d="M-0.120703 -51C-112.555 142.193 177.775 69.7625 177.775 206.755C177.775 335.879 186.41 406.022 339.18 440.674C498.587 476.831 590.655 599.094 526.071 685.615C466.106 765.948 973.808 727.194 794.413 947" stroke="#433E8A"/>
<path d="M25.9095 -47C-86.6555 146.193 204.012 73.7625 204.012 210.755C204.012 339.879 212.657 410.022 365.605 444.674C525.197 480.831 617.373 603.094 552.713 689.615C492.679 769.948 1000.97 731.194 821.368 951" stroke="#3D3882"/>
<path d="M52.8793 -43C-59.5548 150.387 230.775 77.8835 230.775 215.013C230.775 344.267 239.41 414.48 392.18 449.167C551.587 485.36 643.655 607.746 579.071 694.353C519.106 774.767 1026.81 735.973 847.413 956" stroke="#38337B"/>
<path d="M78.9095 -39C-33.6555 154.387 257.012 81.8835 257.012 219.013C257.012 348.267 265.657 418.48 418.605 453.167C578.197 489.36 670.373 611.746 605.713 698.353C545.679 778.767 1053.97 739.973 874.368 960" stroke="#322D73"/>
<path d="M104.909 -35C-7.65548 158.387 283.012 85.8835 283.012 223.013C283.012 352.267 291.657 422.48 444.605 457.167C604.197 493.36 696.373 615.746 631.713 702.353C571.679 782.767 1079.97 743.973 900.368 964" stroke="#2C286C"/>
<path d="M131.879 -31C19.4452 162.387 309.775 89.8835 309.775 227.013C309.775 356.267 318.41 426.48 471.18 461.167C630.587 497.36 722.655 619.746 658.071 706.353C598.106 786.767 1105.81 747.973 926.413 968" stroke="#272264"/>
<path d="M157.909 -27C45.3445 166.387 336.012 93.8835 336.012 231.013C336.012 360.267 344.657 430.48 497.605 465.167C657.197 501.36 749.373 623.746 684.713 710.353C624.679 790.767 1132.97 751.973 953.368 972" stroke="#211D5D"/>
<path d="M183.909 -23C71.3445 170.387 362.012 97.8835 362.012 235.013C362.012 364.267 370.657 434.48 523.605 469.167C683.197 505.36 775.373 627.746 710.713 714.353C650.679 794.767 1158.97 755.973 979.368 976" stroke="#1B1855"/>
<path d="M210.879 -18C98.4452 175.193 388.775 102.763 388.775 239.755C388.775 368.879 397.41 439.022 550.18 473.674C709.587 509.831 801.655 632.094 737.071 718.615C677.106 798.948 1184.81 760.194 1005.41 980" stroke="#16124E"/>
<path d="M236.909 -14C124.345 179.193 415.012 106.763 415.012 243.755C415.012 372.879 423.657 443.022 576.605 477.674C736.197 513.831 828.373 636.094 763.713 722.615C703.679 802.948 1211.97 764.194 1032.37 984" stroke="#100D46"/>
</g>
<defs>
<clipPath id="clip0_27_101">
<rect width="1920" height="788" fill="white"/>
</clipPath>
</defs>
</svg>
