<svg width="181" height="61" viewBox="0 0 181 61" fill="none" xmlns="http://www.w3.org/2000/svg">
<line x1="0.289062" y1="60" x2="180.289" y2="60" stroke="black" stroke-opacity="0.5" stroke-width="2"/>
<path d="M13.5281 48V45.45L28.0781 31.2C29.4115 29.9 30.4115 28.7667 31.0781 27.8C31.7448 26.8 32.1948 25.8667 32.4281 25C32.6615 24.1333 32.7781 23.3167 32.7781 22.55C32.7781 20.5167 32.0781 18.9167 30.6781 17.75C29.3115 16.5833 27.2781 16 24.5781 16C22.5115 16 20.6781 16.3167 19.0781 16.95C17.5115 17.5833 16.1615 18.5667 15.0281 19.9L12.4781 17.7C13.8448 16.1 15.5948 14.8667 17.7281 14C19.8615 13.1333 22.2448 12.7 24.8781 12.7C27.2448 12.7 29.2948 13.0833 31.0281 13.85C32.7615 14.5833 34.0948 15.6667 35.0281 17.1C35.9948 18.5333 36.4781 20.2167 36.4781 22.15C36.4781 23.2833 36.3115 24.4 35.9781 25.5C35.6781 26.6 35.1115 27.7667 34.2781 29C33.4781 30.2 32.2948 31.5667 30.7281 33.1L17.3781 46.2L16.3781 44.8H38.0781V48H13.5281ZM69.632 48.3C66.932 48.3 64.532 47.6 62.432 46.2C60.332 44.7667 58.682 42.7333 57.482 40.1C56.282 37.4333 55.682 34.2333 55.682 30.5C55.682 26.7667 56.282 23.5833 57.482 20.95C58.682 18.2833 60.332 16.25 62.432 14.85C64.532 13.4167 66.932 12.7 69.632 12.7C72.332 12.7 74.732 13.4167 76.832 14.85C78.932 16.25 80.582 18.2833 81.782 20.95C83.0154 23.5833 83.632 26.7667 83.632 30.5C83.632 34.2333 83.0154 37.4333 81.782 40.1C80.582 42.7333 78.932 44.7667 76.832 46.2C74.732 47.6 72.332 48.3 69.632 48.3ZM69.632 45C71.6987 45 73.4987 44.45 75.032 43.35C76.5654 42.2167 77.7654 40.5833 78.632 38.45C79.4987 36.2833 79.932 33.6333 79.932 30.5C79.932 27.3667 79.4987 24.7333 78.632 22.6C77.7654 20.4333 76.5654 18.8 75.032 17.7C73.4987 16.5667 71.6987 16 69.632 16C67.632 16 65.8487 16.5667 64.282 17.7C62.7154 18.8 61.4987 20.4333 60.632 22.6C59.7654 24.7333 59.332 27.3667 59.332 30.5C59.332 33.6333 59.7654 36.2833 60.632 38.45C61.4987 40.5833 62.7154 42.2167 64.282 43.35C65.8487 44.45 67.632 45 69.632 45ZM101.223 48V45.45L115.773 31.2C117.107 29.9 118.107 28.7667 118.773 27.8C119.44 26.8 119.89 25.8667 120.123 25C120.357 24.1333 120.473 23.3167 120.473 22.55C120.473 20.5167 119.773 18.9167 118.373 17.75C117.007 16.5833 114.973 16 112.273 16C110.207 16 108.373 16.3167 106.773 16.95C105.207 17.5833 103.857 18.5667 102.723 19.9L100.173 17.7C101.54 16.1 103.29 14.8667 105.423 14C107.557 13.1333 109.94 12.7 112.573 12.7C114.94 12.7 116.99 13.0833 118.723 13.85C120.457 14.5833 121.79 15.6667 122.723 17.1C123.69 18.5333 124.173 20.2167 124.173 22.15C124.173 23.2833 124.007 24.4 123.673 25.5C123.373 26.6 122.807 27.7667 121.973 29C121.173 30.2 119.99 31.5667 118.423 33.1L105.073 46.2L104.073 44.8H125.773V48H101.223ZM153.827 48.3C151.294 48.3 148.894 47.9 146.627 47.1C144.394 46.2667 142.594 45.1667 141.227 43.8L142.977 40.95C144.111 42.1167 145.627 43.0833 147.527 43.85C149.461 44.6167 151.561 45 153.827 45C156.727 45 158.944 44.3667 160.477 43.1C162.044 41.8333 162.827 40.1333 162.827 38C162.827 35.8667 162.061 34.1667 160.527 32.9C159.027 31.6333 156.644 31 153.377 31H150.877V28.35L161.677 14.8L162.177 16.2H142.677V13H165.177V15.55L154.377 29.1L152.627 27.95H153.977C158.177 27.95 161.311 28.8833 163.377 30.75C165.477 32.6167 166.527 35.0167 166.527 37.95C166.527 39.9167 166.061 41.6833 165.127 43.25C164.194 44.8167 162.777 46.05 160.877 46.95C159.011 47.85 156.661 48.3 153.827 48.3Z" fill="black" fill-opacity="0.5"/>
</svg>
