<svg width="1920" height="773" viewBox="0 0 1920 773" fill="none" xmlns="http://www.w3.org/2000/svg">
<g clip-path="url(#clip0_27_126)">
<rect width="1920" height="788" fill="#5F58C4"/>
<path d="M894 782.609C1090 895.109 1016.52 604.609 1155.5 604.609C1286.5 604.609 1357.66 595.969 1392.82 443.109C1429.5 283.609 1553.54 191.487 1641.32 256.109C1722.82 316.109 1683.5 -191.891 1906.5 -12.3905" stroke="#FFEFAB"/>
<path d="M914.363 796.2C1110.36 908.7 1036.88 618.2 1175.86 618.2C1306.86 618.2 1378.03 609.559 1413.18 456.7C1449.86 297.2 1573.9 205.078 1661.68 269.7C1743.18 329.7 1703.86 -178.3 1926.86 1.19979" stroke="#FEEFAC"/>
<path d="M934.726 799.79C1130.73 912.29 1057.24 621.79 1196.23 621.79C1327.23 621.79 1398.39 613.15 1433.54 460.29C1470.23 300.79 1594.27 208.668 1682.04 273.29C1763.54 333.29 1724.23 -174.71 1947.23 4.79025" stroke="#FDEEAC"/>
<path d="M955.088 803.38C1151.09 915.88 1077.61 625.38 1216.59 625.38C1347.59 625.38 1418.75 616.74 1453.91 463.88C1490.59 304.38 1614.63 212.259 1702.41 276.88C1783.91 336.88 1744.59 -171.119 1967.59 8.38058" stroke="#FCEEAD"/>
<path d="M975.451 806.971C1171.45 919.471 1097.97 628.971 1236.95 628.971C1367.95 628.971 1439.11 620.331 1474.27 467.471C1510.95 307.971 1634.99 215.849 1722.77 280.471C1804.27 340.471 1764.95 -167.529 1987.95 11.971" stroke="#FBEDAE"/>
<path d="M995.814 810.561C1191.81 923.061 1118.33 632.561 1257.31 632.561C1388.31 632.561 1459.48 623.921 1494.63 471.061C1531.31 311.561 1655.35 219.439 1743.13 284.061C1824.63 344.061 1785.31 -163.939 2008.31 15.5614" stroke="#FAEDAE"/>
<path d="M1016.18 814.152C1212.18 926.652 1138.69 636.152 1277.68 636.152C1408.68 636.152 1479.84 627.511 1514.99 474.652C1551.68 315.152 1675.72 223.03 1763.49 287.652C1844.99 347.652 1805.68 -160.348 2028.68 19.1517" stroke="#F9ECAF"/>
<path d="M1036.54 817.742C1232.54 930.242 1159.06 639.742 1298.04 639.742C1429.04 639.742 1500.2 631.102 1535.36 478.242C1572.04 318.742 1696.08 226.62 1783.86 291.242C1865.36 351.242 1826.04 -156.758 2049.04 22.742" stroke="#F8ECAF"/>
<path d="M1056.9 821.332C1252.9 933.832 1179.42 643.332 1318.4 643.332C1449.4 643.332 1520.56 634.692 1555.72 481.832C1592.4 322.332 1716.44 230.21 1804.22 294.832C1885.72 354.832 1846.4 -153.168 2069.4 26.3325" stroke="#F7EBB0"/>
<path d="M1077.26 824.923C1273.26 937.423 1199.78 646.923 1338.76 646.923C1469.76 646.923 1540.93 638.283 1576.08 485.423C1612.76 325.923 1736.8 233.801 1824.58 298.423C1906.08 358.423 1866.76 -149.577 2089.76 29.9229" stroke="#F6EBB1"/>
<path d="M1097.63 828.513C1293.63 941.013 1220.14 650.513 1359.13 650.513C1490.13 650.513 1561.29 641.873 1596.45 489.013C1633.13 329.513 1757.17 237.391 1844.95 302.013C1926.45 362.013 1887.13 -145.987 2110.13 33.5133" stroke="#F5EAB1"/>
<path d="M1117.99 832.104C1313.99 944.604 1240.51 654.104 1379.49 654.104C1510.49 654.104 1581.65 645.463 1616.81 492.604C1653.49 333.104 1777.53 240.982 1865.31 305.603C1946.81 365.603 1907.49 -142.396 2130.49 37.1036" stroke="#F4EAB2"/>
<path d="M1138.35 835.694C1334.35 948.194 1260.87 657.694 1399.85 657.694C1530.85 657.694 1602.02 649.054 1637.17 496.194C1673.85 336.694 1797.89 244.572 1885.67 309.194C1967.17 369.194 1927.85 -138.806 2150.85 40.6939" stroke="#F3EAB3"/>
<path d="M1158.72 839.284C1354.72 951.784 1281.23 661.284 1420.22 661.284C1551.22 661.284 1622.38 652.644 1657.53 499.784C1694.22 340.284 1818.26 248.162 1906.03 312.784C1987.53 372.784 1948.22 -135.216 2171.22 44.2844" stroke="#F3E9B3"/>
<path d="M1179.08 842.875C1375.08 955.375 1301.6 664.875 1440.58 664.875C1571.58 664.875 1642.74 656.235 1677.9 503.375C1714.58 343.875 1838.62 251.753 1926.4 316.375C2007.9 376.375 1968.58 -131.625 2191.58 47.8748" stroke="#F2E9B4"/>
<path d="M1199.44 846.465C1395.44 958.965 1321.96 668.465 1460.94 668.465C1591.94 668.465 1663.1 659.825 1698.26 506.965C1734.94 347.465 1858.98 255.343 1946.76 319.965C2028.26 379.965 1988.94 -128.035 2211.94 51.4652" stroke="#F1E8B4"/>
<path d="M1219.8 850.055C1415.8 962.555 1342.32 672.055 1481.3 672.055C1612.3 672.055 1683.47 663.415 1718.62 510.555C1755.3 351.055 1879.34 258.933 1967.12 323.555C2048.62 383.555 2009.3 -124.445 2232.3 55.0555" stroke="#F0E8B5"/>
<path d="M1240.17 853.646C1436.17 966.146 1362.68 675.646 1501.67 675.646C1632.67 675.646 1703.83 667.006 1738.98 514.146C1775.67 354.646 1899.71 262.524 1987.48 327.146C2068.98 387.146 2029.67 -120.854 2252.67 58.6458" stroke="#EFE7B6"/>
<path d="M1260.53 857.236C1456.53 969.736 1383.05 679.236 1522.03 679.236C1653.03 679.236 1724.19 670.596 1759.35 517.736C1796.03 358.236 1920.07 266.114 2007.85 330.736C2089.35 390.736 2050.03 -117.264 2273.03 62.2363" stroke="#EEE7B6"/>
<path d="M1280.89 860.827C1476.89 973.327 1403.41 682.827 1542.39 682.827C1673.39 682.827 1744.55 674.186 1779.71 521.327C1816.39 361.827 1940.43 269.705 2028.21 334.327C2109.71 394.327 2070.39 -113.673 2293.39 65.8267" stroke="#EDE6B7"/>
<path d="M1301.25 864.417C1497.25 976.917 1423.77 686.417 1562.75 686.417C1693.75 686.417 1764.92 677.777 1800.07 524.917C1836.75 365.417 1960.79 273.295 2048.57 337.917C2130.07 397.917 2090.75 -110.083 2313.75 69.4171" stroke="#ECE6B8"/>
<path d="M1321.62 868.007C1517.62 980.507 1444.13 690.007 1583.12 690.007C1714.12 690.007 1785.28 681.367 1820.44 528.507C1857.12 369.007 1981.16 276.885 2068.94 341.507C2150.44 401.507 2111.12 -106.493 2334.12 73.0074" stroke="#EBE6B8"/>
<path d="M1341.98 871.598C1537.98 984.098 1464.5 693.598 1603.48 693.598C1734.48 693.598 1805.64 684.957 1840.8 532.098C1877.48 372.598 2001.52 280.476 2089.3 345.098C2170.8 405.098 2131.48 -102.902 2354.48 76.5977" stroke="#EAE5B9"/>
<path d="M1362.34 875.188C1558.34 987.688 1484.86 697.188 1623.84 697.188C1754.84 697.188 1826.01 688.548 1861.16 535.688C1897.84 376.188 2021.88 284.066 2109.66 348.688C2191.16 408.688 2151.84 -99.3118 2374.84 80.1882" stroke="#E9E5B9"/>
<path d="M1382.71 878.779C1578.71 991.279 1505.22 700.779 1644.21 700.779C1775.21 700.779 1846.37 692.138 1881.52 539.279C1918.21 379.779 2042.25 287.657 2130.02 352.279C2211.52 412.278 2172.21 -95.7214 2395.21 83.7787" stroke="#E8E4BA"/>
<path d="M1403.07 882.369C1599.07 994.869 1525.59 704.369 1664.57 704.369C1795.57 704.369 1866.73 695.729 1901.89 542.869C1938.57 383.369 2062.61 291.247 2150.39 355.869C2231.89 415.869 2192.57 -92.131 2415.57 87.369" stroke="#E7E4BB"/>
<path d="M1423.43 885.959C1619.43 998.459 1545.95 707.959 1684.93 707.959C1815.93 707.959 1887.09 699.319 1922.25 546.459C1958.93 386.959 2082.97 294.837 2170.75 359.459C2252.25 419.459 2212.93 -88.5407 2435.93 90.9593" stroke="#E6E3BB"/>
<path d="M1443.79 889.55C1639.79 1002.05 1566.31 711.55 1705.29 711.55C1836.29 711.55 1907.46 702.909 1942.61 550.05C1979.29 390.55 2103.33 298.428 2191.11 363.05C2272.61 423.049 2233.29 -84.9504 2456.29 94.5496" stroke="#E5E3BC"/>
<path d="M1464.16 893.14C1660.16 1005.64 1586.67 715.14 1725.66 715.14C1856.66 715.14 1927.82 706.5 1962.97 553.64C1999.66 394.14 2123.7 302.018 2211.47 366.64C2292.97 426.64 2253.66 -81.3599 2476.66 98.1401" stroke="#E4E2BD"/>
<path d="M1484.52 896.73C1680.52 1009.23 1607.04 718.73 1746.02 718.73C1877.02 718.73 1948.18 710.09 1983.34 557.23C2020.02 397.73 2144.06 305.609 2231.84 370.23C2313.34 430.23 2274.02 -77.7695 2497.02 101.731" stroke="#E3E2BD"/>
<path d="M1504.88 900.321C1700.88 1012.82 1627.4 722.321 1766.38 722.321C1897.38 722.321 1968.54 713.681 2003.7 560.821C2040.38 401.321 2164.42 309.199 2252.2 373.821C2333.7 433.821 2294.38 -74.1791 2517.38 105.321" stroke="#E2E1BE"/>
<path d="M1525.25 903.911C1721.25 1016.41 1647.76 725.911 1786.75 725.911C1917.75 725.911 1988.91 717.271 2024.06 564.411C2060.75 404.911 2184.78 312.789 2272.56 377.411C2354.06 437.411 2314.75 -70.5888 2537.75 108.911" stroke="#E1E1BE"/>
<path d="M1545.61 907.501C1741.61 1020 1668.12 729.501 1807.11 729.501C1938.11 729.501 2009.27 720.861 2044.43 568.001C2081.11 408.501 2205.15 316.38 2292.93 381.001C2374.43 441.001 2335.11 -66.9985 2558.11 112.502" stroke="#E0E1BF"/>
<path d="M1565.97 911.092C1761.97 1023.59 1688.49 733.092 1827.47 733.092C1958.47 733.092 2029.63 724.452 2064.79 571.592C2101.47 412.092 2225.51 319.97 2313.29 384.592C2394.79 444.592 2355.47 -63.408 2578.47 116.092" stroke="#DFE0C0"/>
<path d="M1586.33 914.682C1782.33 1027.18 1708.85 736.682 1847.83 736.682C1978.83 736.682 2050 728.042 2085.15 575.182C2121.83 415.682 2245.87 323.56 2333.65 388.182C2415.15 448.182 2375.83 -59.8176 2598.83 119.682" stroke="#DEE0C0"/>
<path d="M1606.7 918.273C1802.7 1030.77 1729.21 740.273 1868.2 740.273C1999.2 740.273 2070.36 731.632 2105.51 578.773C2142.2 419.273 2266.24 327.151 2354.01 391.773C2435.51 451.773 2396.2 -56.2272 2619.2 123.273" stroke="#DDDFC1"/>
<path d="M1627.06 921.863C1823.06 1034.36 1749.58 743.863 1888.56 743.863C2019.56 743.863 2090.72 735.223 2125.88 582.363C2162.56 422.863 2286.6 330.741 2374.38 395.363C2455.88 455.363 2416.56 -52.6369 2639.56 126.863" stroke="#DCDFC2"/>
<path d="M1647.42 925.453C1843.42 1037.95 1769.94 747.453 1908.92 747.453C2039.92 747.453 2111.08 738.813 2146.24 585.953C2182.92 426.453 2306.96 334.331 2394.74 398.953C2476.24 458.953 2436.92 -49.0466 2659.92 130.453" stroke="#DBDEC2"/>
<path d="M1667.78 929.044C1863.78 1041.54 1790.3 751.044 1929.28 751.044C2060.28 751.044 2131.45 742.404 2166.6 589.544C2203.28 430.044 2327.32 337.922 2415.1 402.544C2496.6 462.544 2457.28 -45.4561 2680.28 134.044" stroke="#DADEC3"/>
<path d="M1688.15 932.634C1884.15 1045.13 1810.66 754.634 1949.65 754.634C2080.65 754.634 2151.81 745.994 2186.96 593.134C2223.65 433.634 2347.69 341.512 2435.46 406.134C2516.96 466.134 2477.65 -41.8657 2700.65 137.634" stroke="#DADDC3"/>
<path d="M1708.51 936.225C1904.51 1048.72 1831.03 758.225 1970.01 758.225C2101.01 758.225 2172.17 749.584 2207.33 596.725C2244.01 437.225 2368.05 345.103 2455.83 409.725C2537.33 469.725 2498.01 -38.2753 2721.01 141.225" stroke="#D9DDC4"/>
<path d="M1728.87 939.815C1924.87 1052.31 1851.39 761.815 1990.37 761.815C2121.37 761.815 2192.54 753.175 2227.69 600.315C2264.37 440.815 2388.41 348.693 2476.19 413.315C2557.69 473.315 2518.37 -34.685 2741.37 144.815" stroke="#D8DDC5"/>
<path d="M1749.24 943.405C1945.24 1055.91 1871.75 765.405 2010.74 765.405C2141.74 765.405 2212.9 756.765 2248.05 603.905C2284.74 444.405 2408.77 352.283 2496.55 416.905C2578.05 476.905 2538.74 -31.0947 2761.74 148.405" stroke="#D7DCC5"/>
<path d="M1769.6 946.996C1965.6 1059.5 1892.12 768.996 2031.1 768.996C2162.1 768.996 2233.26 760.355 2268.42 607.496C2305.1 447.996 2429.14 355.874 2516.92 420.496C2598.42 480.496 2559.1 -27.5042 2782.1 151.996" stroke="#D6DCC6"/>
<path d="M1789.96 950.586C1985.96 1063.09 1912.48 772.586 2051.46 772.586C2182.46 772.586 2253.62 763.946 2288.78 611.086C2325.46 451.586 2449.5 359.464 2537.28 424.086C2618.78 484.086 2579.46 -23.9138 2802.46 155.586" stroke="#D5DBC7"/>
<path d="M1810.32 954.177C2006.32 1066.68 1932.84 776.177 2071.82 776.177C2202.82 776.177 2273.99 767.536 2309.14 614.677C2345.82 455.177 2469.86 363.055 2557.64 427.676C2639.14 487.676 2599.82 -20.3234 2822.82 159.177" stroke="#D4DBC7"/>
<path d="M1830.69 957.767C2026.69 1070.27 1953.2 779.767 2092.19 779.767C2223.19 779.767 2294.35 771.127 2329.5 618.267C2366.19 458.767 2490.23 366.645 2578 431.267C2659.5 491.267 2620.19 -16.7331 2843.19 162.767" stroke="#D3DAC8"/>
<path d="M1851.05 961.357C2047.05 1073.86 1973.57 783.357 2112.55 783.357C2243.55 783.357 2314.71 774.717 2349.87 621.857C2386.55 462.357 2510.59 370.235 2598.37 434.857C2679.87 494.857 2640.55 -13.1428 2863.55 166.357" stroke="#D2DAC8"/>
<path d="M1871.41 964.948C2067.41 1077.45 1993.93 786.948 2132.91 786.948C2263.91 786.948 2335.07 778.307 2370.23 625.448C2406.91 465.948 2530.95 373.826 2618.73 438.448C2700.23 498.448 2660.91 -9.55231 2883.91 169.948" stroke="#D1D9C9"/>
<path d="M1891.77 968.538C2087.77 1081.04 2014.29 790.538 2153.27 790.538C2284.27 790.538 2355.44 781.898 2390.59 629.038C2427.27 469.538 2551.31 377.416 2639.09 442.038C2720.59 502.038 2681.27 -5.96198 2904.27 173.538" stroke="#D0D9CA"/>
<path d="M1912.14 972.128C2108.14 1084.63 2034.65 794.128 2173.64 794.128C2304.64 794.128 2375.8 785.488 2410.95 632.628C2447.64 473.128 2571.68 381.006 2659.45 445.628C2740.95 505.628 2701.64 -2.37152 2924.64 177.129" stroke="#CFD8CA"/>
</g>
<defs>
<clipPath id="clip0_27_126">
<rect width="1920" height="773" fill="white"/>
</clipPath>
</defs>
</svg>
